<svg xmlns="http://www.w3.org/2000/svg" xmlns:xlink="http://www.w3.org/1999/xlink" width="32" height="32" viewBox="0 0 32 32"><defs><style>.a{fill:url(#a);}.b{fill:none;}</style><linearGradient id="a" x1="0.5" x2="0.5" y2="1" gradientUnits="objectBoundingBox"><stop offset="0" stop-color="#3EBCD4"/><stop offset="1" stop-color="#3EBCD4"/></linearGradient></defs><g transform="translate(-280 -563)"><g transform="translate(-1556.45 48.153) rotate(90)"><path class="a" d="M538.843-1864.677h-2.937a1.707,1.707,0,0,0,.134-.665v-1.392a1.717,1.717,0,0,0-1.715-1.716h-6.245a1.717,1.717,0,0,0-1.715,1.716v1.392a1.707,1.707,0,0,0,.135.665h-2.938a1.717,1.717,0,0,0-1.715,1.715v24.8a1.716,1.716,0,0,0,1.715,1.715h15.281a1.717,1.717,0,0,0,1.715-1.715v-24.8A1.718,1.718,0,0,0,538.843-1864.677Zm-11.427-2.057a.665.665,0,0,1,.665-.666h6.245a.665.665,0,0,1,.665.666v1.392a.665.665,0,0,1-.666.665h-6.245a.665.665,0,0,1-.665-.665Zm12.092,28.569a.667.667,0,0,1-.665.665h-15.28a.666.666,0,0,1-.665-.665v-24.8a.665.665,0,0,1,.664-.665h15.281a.666.666,0,0,1,.665.665Z" transform="translate(0 0)"/><path class="a" d="M538.272-1841.445a.527.527,0,0,0-.608-.161.526.526,0,0,0-.328.537l.384,3.907-2.606,1.24a.523.523,0,0,0-.285.355.525.525,0,0,0,.1.444l4.463,5.671a.527.527,0,0,0,.413.2.524.524,0,0,0,.41-.2.523.523,0,0,0,.1-.443l-.919-4.075,2.642-1.785a.525.525,0,0,0,.225-.354.523.523,0,0,0-.106-.405Zm.241,6.81a.527.527,0,0,0-.218.55l.485,2.161-2.621-3.332,2.344-1.116a.526.526,0,0,0,.3-.526l-.243-2.487,2.426,3.081Z" transform="translate(-7.341 -15.173)"/></g><rect class="b" width="32" height="32" transform="translate(280 563)"/></g></svg>
