<svg xmlns="http://www.w3.org/2000/svg" width="56" height="56" viewBox="0 0 56 56"><defs><style>.a{fill:#ffd963;}.b{fill:#f2f2f2;}</style></defs><g transform="translate(-924.149 1826.05)"><g transform="translate(924.149 -1826.05)"><path class="a" d="M947.573-1787.888a15.64,15.64,0,0,0,7.819,13.544,15.64,15.64,0,0,0,15.64,0,15.64,15.64,0,0,0,7.82-13.544,15.64,15.64,0,0,0-15.64-15.64,15.639,15.639,0,0,0-15.639,15.64Zm0,0" transform="translate(-934.718 1816.14)"/><path class="a" d="M952.652-1818.482h-1.5a1,1,0,0,1-1-1.007v-5.554a1,1,0,0,1,1-1.007h1.5a1,1,0,0,1,1,1.007v5.554a1,1,0,0,1-1,1.007Zm-14.643,5.195-1.064,1.074a.991.991,0,0,1-1.41,0l-3.892-3.928a1.012,1.012,0,0,1,0-1.424l1.064-1.074a.99.99,0,0,1,1.411,0l3.892,3.927a1.013,1.013,0,0,1,0,1.423Zm-6.359,14.478v1.518a1,1,0,0,1-1,1.007h-5.5a1,1,0,0,1-1-1.007v-1.518a1,1,0,0,1,1-1.007h5.5a1,1,0,0,1,1,1.007Zm5.649,14.775,1.064,1.074a1.013,1.013,0,0,1,0,1.423l-3.892,3.927a.991.991,0,0,1-1.411,0l-1.064-1.073a1.013,1.013,0,0,1,0-1.424l3.892-3.927a.991.991,0,0,1,1.411,0Zm14.348,6.417h1.5a1,1,0,0,1,1,1.007v5.554a1,1,0,0,1-1,1.007h-1.5a1,1,0,0,1-1-1.007v-5.554a1,1,0,0,1,1-1.007Zm14.643-5.7,1.064-1.074a.991.991,0,0,1,1.411,0l3.892,3.928a1.012,1.012,0,0,1,0,1.423l-1.064,1.074a.991.991,0,0,1-1.411,0l-3.893-3.927a1.013,1.013,0,0,1,0-1.424Zm6.36-14.478v-1.518a1,1,0,0,1,1-1.007h5.505a1,1,0,0,1,1,1.007v1.518a1,1,0,0,1-1,1.007h-5.505a1,1,0,0,1-1-1.007ZM967-1812.57l-1.064-1.074a1.012,1.012,0,0,1,0-1.423l3.892-3.927a.991.991,0,0,1,1.411,0l1.064,1.073a1.012,1.012,0,0,1,0,1.424l-3.892,3.928a.991.991,0,0,1-1.411,0Zm0,0" transform="translate(-924.149 1826.05)"/></g><path class="b" d="M969.572-1779.462a14.692,14.692,0,0,0-10.81,4.74,7.842,7.842,0,0,0-8.7-2.221,7.979,7.979,0,0,0-5.137,7.438v.2a9.959,9.959,0,0,0-7.848,10.775,9.906,9.906,0,0,0,9.824,8.968h22.674a14.772,14.772,0,0,0,13.085-7.384,15.1,15.1,0,0,0,0-15.145,14.771,14.771,0,0,0-13.085-7.384Zm0,0" transform="translate(-5.665 -20.491)"/></g></svg>