<svg xmlns="http://www.w3.org/2000/svg" width="80" height="80" viewBox="0 0 80 80"><defs><style>.a{fill:#f0f5ff;}.b{fill:#1f2c3b;}.c{fill:none;}</style></defs><g transform="translate(-10796 -3016)"><path class="a" d="M9.062,0h43s11.594,38.789,9.393,43.4-56.918,2.332-61.734.91S9.062,0,9.062,0Z" transform="translate(10798 3039)"/><g transform="translate(10866.142 3024.272)"><path class="b" d="M426.543,284.987a1.486,1.486,0,0,1-.26-.023h0a1.481,1.481,0,0,1-.767-2.521l1.549-1.492a1.48,1.48,0,0,1,2.068,2.113l-1.565,1.51A1.483,1.483,0,0,1,426.543,284.987Zm-.116-.82a.663.663,0,0,0,.58-.176l1.548-1.493a.671.671,0,0,0-.945-.948l-1.532,1.476a.671.671,0,0,0,.348,1.141Z" transform="translate(-425.065 -280.581)"/></g><g transform="translate(10870.935 3035.278)"><path class="b" d="M438.384,311.024a1.474,1.474,0,0,1-.259-.023h0a1.481,1.481,0,0,1,.054-2.923l2.129-.3a1.48,1.48,0,0,1,.418,2.931l-2.137.3A1.454,1.454,0,0,1,438.384,311.024Zm-.117-.82a.7.7,0,0,0,.21,0l2.128-.3a.671.671,0,0,0-.194-1.328l-2.12.3a.671.671,0,0,0-.024,1.324Z" transform="translate(-436.905 -307.77)"/></g><g transform="translate(10869.021 3046.365)"><path class="b" d="M435.546,339.123a1.466,1.466,0,0,1-.686-.17l-1.9-1.011a1.479,1.479,0,1,1,1.392-2.611l1.9,1.011a1.476,1.476,0,0,1-.7,2.781Zm-1.889-3.156a.67.67,0,0,0-.315,1.261l1.9,1.01a.669.669,0,1,0,.63-1.181l-1.9-1.011A.667.667,0,0,0,433.656,335.967Z" transform="translate(-432.178 -335.157)"/></g><g transform="translate(10835.882 3028.695)"><path class="b" d="M353.627,295.447a1.472,1.472,0,0,1-.683-.168l-1.9-1.014a1.48,1.48,0,0,1,1.37-2.621l2.133,1.135v.027a1.474,1.474,0,0,1-.92,2.64Zm-1.831-3.133a.68.68,0,0,0-.6.359.671.671,0,0,0,.244.889l1.877,1a.682.682,0,0,0,.909-.28.674.674,0,0,0-.28-.9l-1.9-1.012A.618.618,0,0,0,351.8,292.314Z" transform="translate(-350.313 -291.508)"/></g><g transform="translate(10861.145 3054.409)"><path class="b" d="M415.14,359.926c-.042,0-.083,0-.125-.006a1.479,1.479,0,0,1-1.231-.882l-.933-1.919a1.481,1.481,0,0,1,2.655-1.307l.007.015.939,1.933a1.481,1.481,0,0,1-1.312,2.166Zm-.939-4.086a.673.673,0,0,0-.616.94l.933,1.919a.679.679,0,0,0,.565.415.671.671,0,0,0,.648-.986l-.943-1.94A.669.669,0,0,0,414.2,355.84Z" transform="translate(-412.721 -355.029)"/></g><g transform="translate(10844.69 3020.17)"><path class="b" d="M374.491,275.344c-.04,0-.079,0-.12,0a1.482,1.482,0,0,1-1.228-.863l-.937-1.928a1.481,1.481,0,0,1,2.657-1.306l.945,1.945a1.48,1.48,0,0,1-1.317,2.157Zm-.936-4.086a.675.675,0,0,0-.3.069.668.668,0,0,0-.318.879l.939,1.933a.671.671,0,0,0,.558.394.678.678,0,0,0,.614-.3.671.671,0,0,0,.034-.682l-.945-1.945A.659.659,0,0,0,373.555,271.257Z" transform="translate(-372.072 -270.447)"/></g><g transform="translate(10856.473 3018.5)"><path class="b" d="M402.656,271.344a1.477,1.477,0,0,1-.259-.023h0a1.467,1.467,0,0,1-.953-.608,1.485,1.485,0,0,1-.243-1.107l.377-2.115a1.479,1.479,0,0,1,2.913.5l-.377,2.135a1.476,1.476,0,0,1-1.458,1.222Zm-.115-.82a.667.667,0,0,0,.775-.542l.374-2.116a.67.67,0,0,0-1.32-.215l-.373,2.1a.673.673,0,0,0,.11.5.663.663,0,0,0,.432.275v0Z" transform="translate(-401.178 -266.321)"/></g><g transform="translate(10796 3037.328)"><path class="b" d="M311.323,361.024H257.667a5.606,5.606,0,0,1-4.5-2.064c-1.328-1.665-1.713-4.1-1.085-6.845l7.909-34.161a6.759,6.759,0,0,1,6.332-5.122h36.34A6.76,6.76,0,0,1,309,317.959l7.909,34.156c.628,2.749.243,5.18-1.084,6.845A5.606,5.606,0,0,1,311.323,361.024Zm-45-45.763a4.365,4.365,0,0,0-3.965,3.238l-7.909,34.161c-.459,2.009-.24,3.71.617,4.786a3.185,3.185,0,0,0,2.6,1.149h53.656a3.187,3.187,0,0,0,2.6-1.148c.857-1.075,1.076-2.776.616-4.788L306.63,318.5a4.366,4.366,0,0,0-3.965-3.242Z" transform="translate(-251.79 -312.833)"/></g><g transform="translate(10856.509 3080.311)"><path class="b" d="M401.267,419.016" transform="translate(-401.267 -419.016)"/></g><g transform="translate(10807.426 3042.476)"><path class="b" d="M296.685,340.621h-13.45a3.139,3.139,0,0,1-2.491-1.147,3.479,3.479,0,0,1-.644-2.925l1.652-7.905a4.06,4.06,0,0,1,3.884-3.093h11.6a3.45,3.45,0,0,1,2.443,1,3.149,3.149,0,0,1,.921,2.264l-.083,7.9A3.9,3.9,0,0,1,296.685,340.621Zm-11.049-13.451a2.457,2.457,0,0,0-2.3,1.806l-1.652,7.9a1.873,1.873,0,0,0,.315,1.574,1.53,1.53,0,0,0,1.235.549h13.45a2.3,2.3,0,0,0,2.212-2.3l.083-7.9a1.54,1.54,0,0,0-.453-1.108,1.8,1.8,0,0,0-1.291-.523Z" transform="translate(-280.016 -325.55)"/></g><g transform="translate(10829.563 3042.476)"><path class="b" d="M351.951,340.621H338.6a3.891,3.891,0,0,1-3.811-3.9l-.083-7.9a3.16,3.16,0,0,1,.923-2.271,3.371,3.371,0,0,1,2.418-1h11.521a4.039,4.039,0,0,1,3.863,3.094l1.643,7.9a3.49,3.49,0,0,1-.644,2.932A3.12,3.12,0,0,1,351.951,340.621Zm-13.909-13.451a1.764,1.764,0,0,0-1.267.515,1.553,1.553,0,0,0-.455,1.115l.083,7.9A2.3,2.3,0,0,0,338.6,339h13.355a1.512,1.512,0,0,0,1.218-.543,1.885,1.885,0,0,0,.315-1.581l-1.643-7.9a2.437,2.437,0,0,0-2.277-1.8Z" transform="translate(-334.702 -325.55)"/></g><g transform="translate(10803.362 3059.56)"><path class="b" d="M289.86,388.523H273.578a3.345,3.345,0,0,1-2.641-1.263,5.018,5.018,0,0,1-.824-4.221l2.353-11.237a4.988,4.988,0,0,1,4.54-4.048h13.642a3.627,3.627,0,0,1,2.587,1.1,4.38,4.38,0,0,1,1.22,3.121l-.119,11.238C294.3,386.142,292.3,388.523,289.86,388.523Zm-12.854-19.15a3.421,3.421,0,0,0-2.955,2.761L271.7,383.372a3.474,3.474,0,0,0,.5,2.869,1.733,1.733,0,0,0,1.384.663H289.86c1.526,0,2.835-1.7,2.857-3.707l.119-11.237a2.754,2.754,0,0,0-.751-1.966,2.022,2.022,0,0,0-1.436-.621Z" transform="translate(-269.976 -367.754)"/></g><g transform="translate(10829.73 3059.56)"><path class="b" d="M355.851,388.523H339.684c-2.421,0-4.417-2.381-4.449-5.309l-.119-11.238a4.391,4.391,0,0,1,1.219-3.129,3.6,3.6,0,0,1,2.565-1.094h13.546a4.971,4.971,0,0,1,4.514,4.048h0l2.338,11.238a5.037,5.037,0,0,1-.827,4.23A3.323,3.323,0,0,1,355.851,388.523ZM338.9,369.373a1.986,1.986,0,0,0-1.414.614,2.761,2.761,0,0,0-.751,1.972l.119,11.238c.022,2.009,1.318,3.707,2.829,3.707h16.167a1.708,1.708,0,0,0,1.364-.655,3.486,3.486,0,0,0,.5-2.878l-2.337-11.238a3.406,3.406,0,0,0-2.929-2.76Z" transform="translate(-335.116 -367.754)"/></g><g transform="translate(10817.146 3083.092)"><path class="b" d="M324.317,437.766H307.433a3.408,3.408,0,0,1-3.4-3.4v-.348a3.408,3.408,0,0,1,3.4-3.4H312.3v-1.149a3.577,3.577,0,1,1,7.154,0v1.149h4.864a3.408,3.408,0,0,1,3.405,3.4v.348A3.409,3.409,0,0,1,324.317,437.766Zm-16.884-4.726a.976.976,0,0,0-.976.974v.348a.977.977,0,0,0,.976.975h16.884a.978.978,0,0,0,.978-.975v-.348a.977.977,0,0,0-.977-.974h-7.293v-3.577a1.148,1.148,0,1,0-2.3,0v3.577Z" transform="translate(-304.029 -425.886)"/></g><g transform="translate(10839.465 3023.645)"><path class="b" d="M377.517,310.467l-3.7-15.981a4.729,4.729,0,0,0-4.359-3.554H359.163l.356-1.066a15.834,15.834,0,0,1,14.715-10.83l.005,0h.311a15.847,15.847,0,0,1,3.763,31.242Zm-16.059-21.154h8a6.339,6.339,0,0,1,5.937,4.81l3.327,14.361a14.229,14.229,0,0,0-4.018-27.833h-.155A14.214,14.214,0,0,0,361.458,289.312Z" transform="translate(-359.163 -279.031)"/></g><g transform="translate(10854.444 3026.075)"><path class="b" d="M396.169,285.036" transform="translate(-396.169 -285.036)"/></g><rect class="c" width="80" height="80" transform="translate(10796 3016)"/></g></svg>