<svg xmlns="http://www.w3.org/2000/svg" width="80" height="80" viewBox="0 0 80 80"><defs><style>.a{fill:#181c4d;}.b{fill:none;}</style></defs><g transform="translate(-467 -352)"><g transform="translate(8 0)"><g transform="translate(472 352)"><path class="a" d="M899.875,932.3h-45a4.58,4.58,0,0,1-4.5-4.646V863.917a4.58,4.58,0,0,1,4.5-4.646h45a4.58,4.58,0,0,1,4.5,4.646v63.739A4.58,4.58,0,0,1,899.875,932.3Zm-45-69.934a1.527,1.527,0,0,0-1.5,1.549v63.739a1.527,1.527,0,0,0,1.5,1.549h45a1.527,1.527,0,0,0,1.5-1.549V863.917a1.527,1.527,0,0,0-1.5-1.549Z" transform="translate(-850.375 -852.302)"/><path class="a" d="M4,0H20.515a4,4,0,0,1,4,4V8.182a0,0,0,0,1,0,0H0a0,0,0,0,1,0,0V4A4,4,0,0,1,4,0Z" transform="translate(14.742)"/><path class="a" d="M897.164,902.677l-17.723,18.284a.431.431,0,0,1-.7-.476l4.684-12.082a.441.441,0,0,0-.4-.606H873.2a.443.443,0,0,1-.324-.729l15.41-18.549a.429.429,0,0,1,.745.374l-2.424,12.5a.438.438,0,0,0,.419.528h9.832A.444.444,0,0,1,897.164,902.677Z" transform="translate(-858.032 -861.969)"/></g></g><rect class="b" width="80" height="80" transform="translate(467 352)"/></g></svg>