<svg xmlns="http://www.w3.org/2000/svg" width="80" height="80" viewBox="0 0 80 80"><defs><style>.a{fill:#f0f5ff;}.b{fill:#1f2c3b;}.c,.d{fill:none;}.d{stroke:#1f2c3b;}</style></defs><g transform="translate(4110 -3596)"><path class="a" d="M11.367,0H63.962s14.18,47.44,11.488,53.076S5.836,55.927-.054,54.189,11.367,0,11.367,0Z" transform="translate(-4107.839 3602.795)"/><g transform="translate(-4110 3600.75)"><path class="b" d="M324.6,371.773H258.977a6.857,6.857,0,0,1-5.5-2.524c-1.624-2.037-2.1-5.01-1.326-8.372l9.673-41.781a8.267,8.267,0,0,1,7.744-6.264h44.446a8.268,8.268,0,0,1,7.744,6.27l9.672,41.775c.768,3.362.3,6.336-1.326,8.372A6.856,6.856,0,0,1,324.6,371.773ZM269.567,315.8a5.339,5.339,0,0,0-4.849,3.96l-9.674,41.78c-.562,2.458-.294,4.538.755,5.853a3.9,3.9,0,0,0,3.178,1.405H324.6a3.9,3.9,0,0,0,3.179-1.4c1.048-1.315,1.315-3.395.754-5.856l-9.672-41.773a5.34,5.34,0,0,0-4.849-3.966Z" transform="translate(-251.79 -312.833)"/></g><g transform="translate(-4035.995 3653.32)"><path class="b" d="M401.267,419.016" transform="translate(-401.267 -419.016)"/></g><g transform="translate(-4085.034 3656.721)"><path class="b" d="M328.842,440.416h-20.65a4.168,4.168,0,0,1-4.164-4.164v-.425a4.168,4.168,0,0,1,4.164-4.162h5.952v-1.4a4.375,4.375,0,1,1,8.75,0v1.4h5.949a4.168,4.168,0,0,1,4.165,4.162v.425A4.169,4.169,0,0,1,328.842,440.416Zm-20.65-5.781A1.194,1.194,0,0,0,307,435.827v.425a1.194,1.194,0,0,0,1.193,1.193h20.65a1.2,1.2,0,0,0,1.2-1.193v-.425a1.194,1.194,0,0,0-1.194-1.192h-8.919V430.26a1.4,1.4,0,1,0-2.809,0v4.375Z" transform="translate(-304.029 -425.886)"/></g><g transform="translate(-4051.556 3602.354)"><path class="b" d="M396.169,285.036" transform="translate(-396.169 -285.036)"/></g><rect class="c" width="80" height="80" transform="translate(-4110 3596)"/><path class="d" d="M-4100.676,3624.636h58.185" transform="translate(2.079 -15.115)"/><path class="d" d="M-4103.915,3636h64.994" transform="translate(1.358 -11.802)"/><path class="d" d="M-4102.638,3630.011h61.711" transform="translate(1.722 -13.151)"/><path class="d" d="M-4105.321,3642.906h68.953" transform="translate(0.99 -11.37)"/><path class="d" d="M-4106.9,3650.79h72.716" transform="translate(0.691 -9.469)"/><path class="d" d="M-4109.277,3657.515c1.38.106,77.143,0,77.143,0" transform="translate(0.161 -7.633)"/><path class="d" d="M-4084.785,3619l-7.92,54.614" transform="translate(0.648 -16.088)"/><path class="d" d="M-4065.159,3618.085l6.019,56.342" transform="translate(10.002 -16.409)"/><path class="d" d="M-4077.74,3619v55.132" transform="translate(7.195 -16.205)"/></g></svg>