<svg xmlns="http://www.w3.org/2000/svg" width="80" height="80" viewBox="0 0 80 80"><defs><style>.a{fill:#f0f5ff;}.b{fill:#1f2c3b;}.c{fill:none;}</style></defs><g transform="translate(-463 -340)"><g transform="translate(0 107.598)"><rect class="a" width="74" height="47" transform="translate(466 252)"/><path class="b" d="M3720.224,100.869h-76.256a1.852,1.852,0,0,1-1.876-1.828V49.053a1.852,1.852,0,0,1,1.876-1.828h5.4v3.482h-3.7v46.68h72.851V50.707h-4.1V47.225h5.8a1.853,1.853,0,0,1,1.878,1.828V99.042a1.84,1.84,0,0,1-1.868,1.828Zm0,0" transform="translate(-3179.093 201.533)"/><path class="b" d="M3673.448,45.106h22.736v3.482h-22.736ZM3654.268,58.2h25.874v3.482h-25.874Zm32.863,27.928a1.793,1.793,0,0,1-.885-.235,1.715,1.715,0,0,1-.662-2.377c.143-.244,3.567-5.955,8.9-6.651,2.851-.366,5.6.713,8.179,3.229,1.8,1.75,3.476,2.5,5,2.229,3-.531,5.014-4.685,5.031-4.719a1.8,1.8,0,0,1,2.369-.862,1.718,1.718,0,0,1,.885,2.307c-.107.235-2.78,5.851-7.65,6.713a7.175,7.175,0,0,1-1.287.113c-2.316,0-4.63-1.106-6.881-3.308-1.771-1.723-3.469-2.464-5.185-2.237-3.558.461-6.247,4.883-6.274,4.927a1.8,1.8,0,0,1-1.547.871Zm-17.625-37.556h-3.575V42.346h-7.865v6.225h-3.574V40.692a1.853,1.853,0,0,1,1.877-1.828h11.26a1.853,1.853,0,0,1,1.877,1.828Zm45.851,0h-3.576V42.233h-7.865v6.338h-3.574V40.58a1.853,1.853,0,0,1,1.877-1.829h11.261a1.853,1.853,0,0,1,1.877,1.829Zm0,0" transform="translate(-3181.893 203.651)"/></g><rect class="c" width="80" height="80" transform="translate(463 340)"/></g></svg>