<svg xmlns="http://www.w3.org/2000/svg" width="80" height="80" viewBox="0 0 80 80"><defs><style>.a{fill:#1f2c3b;}.b{fill:none;}</style></defs><g transform="translate(-106 -903)"><g transform="translate(108.857 903)"><path class="a" d="M1244.434-129.784a1.51,1.51,0,0,0,.506-1.09l.055-3.723a1.467,1.467,0,0,0-.454-1.09,1.606,1.606,0,0,0-1.128-.453h-12.625l-1.471-4.656,10.493-8.971a1.514,1.514,0,0,0,.566-1.171l.047-3.674a1.543,1.543,0,0,0-.462-1.119,1.481,1.481,0,0,0-1.036-.421h-14.463l-4.266-13.491a1.566,1.566,0,0,0-1.514-1.077,1.57,1.57,0,0,0-1.515,1.077l-4.263,13.491h-15.173a1.51,1.51,0,0,0-1.5,1.52v3.583a1.527,1.527,0,0,0,.6,1.219l11.193,9.1-1.452,4.591h-13.33a1.555,1.555,0,0,0-1.584,1.519v3.639a1.491,1.491,0,0,0,.526,1.132l9.747,8.389-9.527,30.134,2.085.608.189-.6L1218.569-109l24.167,17.848.137.433,2.085-.608-9.6-30.353Zm-1.624-4.264-.047,2.9-8.106,7.243-3.207-10.142Zm-21.428,4.635,7.946-4.15,3.007,9.513Zm10.214,7.349H1207.3l11.757-6.137Zm-12.567-8.5-7.113-3.483H1225.7Zm-2.32,1.211-11.977,6.253,3.318-10.494Zm13.118,9.38-11.257,8.335-11.287-8.335Zm8.412-34.086-.036,2.871L1228.621-143l-3.5-11.062Zm-11.6,11.984h-15.907l3.79-11.984h8.329Zm-7.953-25.156,3.5,11.081h-7.007Zm-20.269,15.947v-2.775h13.829l-3.526,11.15Zm11.656,11.3H1227.3l1.216,3.846h-19.661Zm-16.228,8.749v-2.813h12.075l-3.284,10.38Zm1.931,36.469,7.963-25.187,13.047,9.635Zm24.58-15.553,13.228-9.791,8.067,25.517Z" transform="translate(-1180.233 170.719)"/><rect class="a" width="74.286" height="2.857" transform="translate(0 77.143)"/></g><rect class="b" width="80" height="80" transform="translate(106 903)"/></g></svg>