<svg xmlns="http://www.w3.org/2000/svg" width="80" height="80.187" viewBox="0 0 80 80.187"><defs><style>.a,.d{fill:none;}.b{fill:#f0f5ff;stroke-width:3px;}.b,.d{stroke:#1f2c3b;}.c{fill:#1f2c3b;}.d{stroke-linecap:round;stroke-width:2px;}.e{stroke:none;}</style></defs><g transform="translate(5519 -7016.813)"><rect class="a" width="80" height="80" transform="translate(-5519 7017)"/><g class="b" transform="translate(-5497 7037)"><rect class="e" width="36" height="60" rx="2"/><rect class="a" x="1.5" y="1.5" width="33" height="57" rx="0.5"/></g><g class="b" transform="translate(-5487.744 7031)"><rect class="e" width="18" height="9" rx="2"/><rect class="a" x="1.5" y="1.5" width="15" height="6" rx="0.5"/></g><rect class="c" width="12" height="5" rx="2" transform="translate(-5484.744 7028)"/><circle class="c" cx="2.5" cy="2.5" r="2.5" transform="translate(-5473.744 7058)"/><circle class="c" cx="2.5" cy="2.5" r="2.5" transform="translate(-5473.744 7065)"/><circle class="c" cx="2.5" cy="2.5" r="2.5" transform="translate(-5473.744 7072)"/><path class="d" d="M-5457.745,6958.984a14.215,14.215,0,0,1,1.06,5.036,18.091,18.091,0,0,1-1.06,5.441" transform="translate(-4.986 64.044)"/><path class="d" d="M-5456.686,6958.984a14.215,14.215,0,0,0-1.06,5.036,18.091,18.091,0,0,0,1.06,5.441" transform="translate(-38.707 64.044)"/><path class="d" d="M-5457.745,6958.984a7.423,7.423,0,0,1,.553,2.628,9.45,9.45,0,0,1-.553,2.839" transform="translate(-10.125 66.549)"/><path class="d" d="M-5457.192,6958.984a7.423,7.423,0,0,0-.553,2.628,9.45,9.45,0,0,0,.553,2.839" transform="translate(-33.062 66.549)"/><path class="d" d="M-5457.745,6958.984a20.607,20.607,0,0,1,2.961,9.683c0,5.037-2.961,10.461-2.961,10.461" transform="translate(0.406 59.21)"/><path class="d" d="M-5454.784,6958.984a20.607,20.607,0,0,0-2.961,9.683c0,5.037,2.961,10.461,2.961,10.461" transform="translate(-46.001 59.21)"/></g></svg>