<svg xmlns="http://www.w3.org/2000/svg" width="80" height="80" viewBox="0 0 80 80"><defs><style>.a{fill:#f0f5ff;}.b{fill:#1f2c3b;}.c,.d{fill:none;}.d{stroke:#1f2c3b;stroke-width:2px;}.e{stroke:none;}</style></defs><g transform="translate(-8559 -2822)"><rect class="a" width="65.778" height="70.394" transform="translate(8632.333 2893.469) rotate(180)"/><path class="b" d="M69.451,74.351H1.668A1.647,1.647,0,0,1,0,72.726V1.625A1.647,1.647,0,0,1,1.668,0h4.8V3.1H3.177v68.16H67.933V3.1H64.286V0h5.156a1.647,1.647,0,0,1,1.669,1.625v71.1a1.636,1.636,0,0,1-1.66,1.625Zm0,0" transform="translate(8635 2896.351) rotate(180)"/><path class="b" d="M16.85,5.649h20.21v3.1H16.85Zm-3.5,3.08H10.169V3.2H3.177V8.729H0v-7A1.647,1.647,0,0,1,1.669.1H11.678a1.647,1.647,0,0,1,1.668,1.625Zm40.756,0H50.924V3.1H43.932V8.729H40.755v-7.1A1.647,1.647,0,0,1,42.424,0h10.01A1.647,1.647,0,0,1,54.1,1.625Zm0,0" transform="translate(8626.468 2902) rotate(180)"/><rect class="c" width="80" height="80" transform="translate(8639 2902) rotate(180)"/><rect class="b" width="29" height="18" rx="2" transform="translate(8585 2835)"/><rect class="b" width="57" height="1" transform="translate(8571 2879)"/><g class="d" transform="translate(8595 2894)"><rect class="e" width="9" height="6" rx="2"/><rect class="c" x="1" y="1" width="7" height="4" rx="1"/></g></g></svg>