<svg xmlns="http://www.w3.org/2000/svg" width="80" height="80" viewBox="0 0 80 80"><defs><style>.a{fill:#f0f5ff;}.b{fill:#1f2c3b;}.c{fill:none;}</style></defs><g transform="translate(-462 -352)"><g transform="translate(-0.3)"><path class="a" d="M9813,2095l17.28,33.947h-33.646Z" transform="translate(-9310 -1700)"/><circle class="a" cx="5.5" cy="5.5" r="5.5" transform="translate(498 382)"/><g transform="translate(-3329.566 317.343)"><path class="b" d="M3849.5,109.505l-14.04-32.657a7.425,7.425,0,1,0-7.2,0l-14.04,32.657c-1.213,2.835.271,5.152,3.3,5.152H3846.2c3.033,0,4.516-2.317,3.3-5.152Zm-21.867-39.217a4.345,4.345,0,1,1,4.344,4.431,4.388,4.388,0,0,1-4.344-4.431Zm-9.082,39.424,12.41-28.858a.979.979,0,0,1,1.808,0l12.4,28.852a1,1,0,0,1-.9,1.411l-24.816.006A1,1,0,0,1,3818.553,109.712Zm13.313-62.8a23.455,23.455,0,0,0-17.739,38.225,2.018,2.018,0,0,0,3.426-.511l.009-.021a2.074,2.074,0,0,0-.27-2.123,19.564,19.564,0,0,1-4.24-14.563,18.935,18.935,0,0,1,37.778,2.226,19.481,19.481,0,0,1-4.367,12.343,2.089,2.089,0,0,0-.282,2.137h0a2.019,2.019,0,0,0,3.426.51,23.453,23.453,0,0,0-17.74-38.223Zm0-12.257c-19.3,0-35,16.014-35,35.7A35.866,35.866,0,0,0,3809.2,97.486a2.011,2.011,0,0,0,3.161-.772l.178-.416a2.084,2.084,0,0,0-.524-2.393,31.535,31.535,0,0,1-10.779-25.61c.833-15.629,13.16-28.407,28.468-29.484,17.938-1.263,32.873,13.205,32.873,31.231a31.489,31.489,0,0,1-10.85,23.882,2.083,2.083,0,0,0-.519,2.392l.171.4a2.01,2.01,0,0,0,3.159.772,35.857,35.857,0,0,0,12.331-27.13c0-19.686-15.7-35.7-35-35.7Zm0,0" transform="translate(0)"/></g></g><rect class="c" width="80" height="80" transform="translate(462 352)"/></g></svg>