<svg xmlns="http://www.w3.org/2000/svg" width="80" height="80" viewBox="0 0 80 80"><defs><style>.a{fill:#1f2c3b;}.b{fill:#f0f5ff;}.c{fill:#202020;}.d{fill:none;}</style></defs><g transform="translate(-463 -348)"><g transform="translate(-89.255 -446.134)"><path class="a" d="M552.255,849.258a1.3,1.3,0,0,0,1.3,1.3h1.3a2.6,2.6,0,0,0,2.6,2.6h5.2a2.6,2.6,0,0,0,2.6-2.6v-3.886a2.738,2.738,0,0,1,1.587.656c1.572,1.461,1.491,5.272,1.42,8.634-.092,4.327-.178,8.414,3.039,9.22a4.091,4.091,0,0,0,.989.126c2.766,0,4.513-3.086,5.946-5.615.98-1.732,2.2-3.888,3.2-3.948l-.157-2.594c-2.4.146-3.878,2.746-5.3,5.261-1.528,2.7-2.707,4.582-4.042,4.248-1.206-.3-1.131-3.817-1.071-6.642.087-4.1.176-8.338-2.25-10.593a5.355,5.355,0,0,0-3.357-1.378v-3.885a2.6,2.6,0,0,0-2.6-2.6h-5.2a2.6,2.6,0,0,0-2.6,2.6h-1.3a1.3,1.3,0,0,0,0,2.6h1.3v5.2h-1.3A1.3,1.3,0,0,0,552.255,849.258Zm5.2-6.5a2.6,2.6,0,0,1,5.2,0v5.2a2.6,2.6,0,0,1-5.2,0Z" transform="translate(0 -10.786)"/><g transform="translate(571.31 798.134)"><g transform="translate(0)"><path class="a" d="M932.489,755.815a3.585,3.585,0,0,1,3.585,3.585v64.53h5.378a1.793,1.793,0,0,1,0,3.586h-57.36a1.793,1.793,0,0,1,0-3.586h5.378V759.4a3.584,3.584,0,0,1,3.585-3.585Z" transform="translate(-882.299 -755.815)"/><path class="b" d="M935.652,758.815H897.085a1.788,1.788,0,0,0-1.786,1.791v62.331a1.787,1.787,0,0,0,1.786,1.79h38.568a1.787,1.787,0,0,0,1.785-1.79V760.606a1.788,1.788,0,0,0-1.785-1.791Z" transform="translate(-885.896 -756.645)"/><path class="a" d="M929.2,754.627a3.015,3.015,0,0,1,2.117.866,2.934,2.934,0,0,1,.877,2.088v30.761a2.934,2.934,0,0,1-.877,2.089,3.015,3.015,0,0,1-2.117.865H911.236a2.974,2.974,0,0,1-2.994-2.954V757.581a2.974,2.974,0,0,1,2.994-2.954Z" transform="translate(-889.746 -737.111)"/><path class="b" d="M929.691,756.37H911.607a1.808,1.808,0,0,0-1.808,1.808v31a1.808,1.808,0,0,0,1.808,1.808h18.083a1.808,1.808,0,0,0,1.808-1.808v-31a1.808,1.808,0,0,0-1.808-1.808Z" transform="translate(-890.176 -737.774)"/><path class="c" d="M919.8,840.815" transform="translate(-892.911 -779.965)"/><path class="a" d="M929.671,817.535l-11.6,11.955a.282.282,0,0,1-.458-.311l3.067-7.9a.288.288,0,0,0-.26-.4h-6.432a.29.29,0,0,1-.213-.477l10.088-12.127a.281.281,0,0,1,.488.245l-1.586,8.173a.286.286,0,0,0,.274.345h6.437A.29.29,0,0,1,929.671,817.535Z" transform="translate(-891.257 -782.974)"/></g></g></g><rect class="d" width="80" height="80" transform="translate(463 348)"/></g></svg>