<svg xmlns="http://www.w3.org/2000/svg" width="80" height="80" viewBox="0 0 80 80"><defs><style>.a{fill:#1f2c3b;}.b{fill:none;}</style></defs><g transform="translate(-106 -938)"><g transform="translate(108.511 938)"><path class="a" d="M505.525-1786.37H489.386v-17.666H467.864v17.666H451.723v-35.337h-3.588v35.337c0,2.445,1.606,4.425,3.588,4.425h19.729v-17.668H485.8v17.671h19.742c1.973,0,3.571-1.973,3.571-4.4v-35.359h-3.587Z" transform="translate(-440.962 1861.943)"/><path class="a" d="M468.976-1832.212h10.76v13.269a2.036,2.036,0,0,0,1.793,2.212,2.037,2.037,0,0,0,1.794-2.212v-15.481a2.491,2.491,0,0,0-.525-1.562,1.64,1.64,0,0,0-1.269-.649H468.976a2.036,2.036,0,0,0-1.794,2.212A2.036,2.036,0,0,0,468.976-1832.212Z" transform="translate(-415.173 1843.696)"/><path class="a" d="M519.855-1798.97l-33.261-38.962a4.869,4.869,0,0,0-7.688,0l-33.259,38.962a2.548,2.548,0,0,0-.509,2.119,2.077,2.077,0,0,0,1.236,1.6,1.562,1.562,0,0,0,1.742-.518h0l33.259-38.962a1.75,1.75,0,0,1,2.747,0l33.262,38.962a1.567,1.567,0,0,0,2.535-.079A2.587,2.587,0,0,0,519.855-1798.97Z" transform="translate(-445.088 1839.813)"/></g><rect class="b" width="80" height="79.653" transform="translate(106 938)"/></g></svg>