<svg xmlns="http://www.w3.org/2000/svg" width="48" height="48" viewBox="0 0 48 48"><defs><style>.a{fill:#fff;opacity:0;}.b{fill:#aab2bc;}.c{fill:#949da8;}</style></defs><g transform="translate(-271 -104)"><rect class="a" width="48" height="48" transform="translate(271 104)"/><g transform="translate(271 108.616)"><path class="b" d="M1504.189-1806.152a13.476,13.476,0,0,0-9.868,4.282,7.21,7.21,0,0,0-7.944-2.006,7.21,7.21,0,0,0-4.689,6.718v.181a9.007,9.007,0,0,0-7.164,9.732,9.007,9.007,0,0,0,8.968,8.1h20.7a13.513,13.513,0,0,0,11.944-6.67,13.513,13.513,0,0,0,0-13.68,13.513,13.513,0,0,0-11.944-6.67Zm0,0" transform="translate(-1469.992 1806.168)"/><path class="c" d="M1484.4-1786.261a8.726,8.726,0,0,0-6.391,2.773,4.668,4.668,0,0,0-5.144-1.3,4.67,4.67,0,0,0-3.037,4.351v.117a5.833,5.833,0,0,0-4.639,6.3,5.832,5.832,0,0,0,5.807,5.246h13.4a8.751,8.751,0,0,0,7.735-4.32,8.751,8.751,0,0,0,0-8.859,8.752,8.752,0,0,0-7.735-4.32Zm0,0" transform="translate(-1465.155 1795.843)"/><rect class="b" width="5.405" height="1.351" rx="0.676" transform="translate(19.521 30.199) rotate(135)"/><rect class="b" width="9.872" height="1.351" rx="0.676" transform="translate(13.858 31.788) rotate(135)"/><rect class="b" width="5.405" height="1.351" rx="0.676" transform="translate(33.55 28.73) rotate(135)"/><rect class="b" width="9.872" height="1.351" rx="0.676" transform="translate(27.886 30.318) rotate(135)"/></g></g></svg>