<svg xmlns="http://www.w3.org/2000/svg" xmlns:xlink="http://www.w3.org/1999/xlink" width="32" height="32" viewBox="0 0 32 32"><defs><style>.a{fill:url(#a);}.b{fill:none;}</style><linearGradient id="a" x1="0.5" x2="0.5" y2="1" gradientUnits="objectBoundingBox"><stop offset="0" stop-color="#3EBCD4"/><stop offset="1" stop-color="#3EBCD4"/></linearGradient></defs><g transform="translate(-106 -903)"><g transform="translate(108.286 903)"><path class="a" d="M1212.771-154.345a.6.6,0,0,0,.2-.436l.022-1.489a.587.587,0,0,0-.182-.436.642.642,0,0,0-.451-.181h-5.05l-.588-1.863,4.2-3.588a.605.605,0,0,0,.227-.468l.019-1.469a.617.617,0,0,0-.185-.448.592.592,0,0,0-.414-.168h-5.785l-1.707-5.4a.626.626,0,0,0-.606-.431.628.628,0,0,0-.606.431l-1.705,5.4h-6.069a.6.6,0,0,0-.6.608v1.433a.611.611,0,0,0,.24.488l4.477,3.639-.581,1.836H1192.3a.622.622,0,0,0-.634.608v1.456a.6.6,0,0,0,.21.453l3.9,3.356-3.811,12.053.834.243.076-.24,9.555-7.072,9.667,7.139.055.173.834-.243-3.838-12.141Zm-.65-1.706-.019,1.159-3.242,2.9-1.283-4.057Zm-8.572,1.854,3.178-1.66,1.2,3.805Zm4.086,2.939h-9.717l4.7-2.455Zm-5.027-3.4-2.845-1.393h5.513Zm-.928.485-4.791,2.5,1.327-4.2Zm5.247,3.752-4.5,3.334-4.515-3.334Zm3.365-13.635-.014,1.148-3.832,3.276-1.4-4.425Zm-4.641,4.794h-6.363l1.516-4.794h3.332Zm-3.181-10.063,1.4,4.433h-2.8Zm-8.108,6.379v-1.11h5.531l-1.41,4.46Zm4.662,4.52h6.892l.486,1.538h-7.864Zm-6.491,3.5v-1.125h4.83l-1.313,4.152Zm.772,14.588,3.185-10.075,5.219,3.854Zm9.832-6.221,5.291-3.916,3.227,10.207Z" transform="translate(-1187.09 170.719)"/><rect class="a" width="29.714" height="1.143" transform="translate(0 30.857)"/></g><rect class="b" width="32" height="32" transform="translate(106 903)"/></g></svg>
