<svg xmlns="http://www.w3.org/2000/svg" width="54" height="48" viewBox="0 0 54 48"><defs><style>.a{fill:#e5ecff;}.b{fill:#181c4d;}</style></defs><g transform="translate(-120.053 -1764.697)"><path class="a" d="M159.331,1824.507l.138-6.551a.327.327,0,0,0-.48-.3l-13.79,7.366a.327.327,0,0,1-.48-.293l.017-6.792a.327.327,0,0,0-.478-.294l-13.682,7.173a.327.327,0,0,1-.477-.281l-3.415-15.794a.328.328,0,0,0-.327-.318h-4.045a.329.329,0,0,0-.327.318l-1.434,33.625a.329.329,0,0,0,.327.342H173.9a.329.329,0,0,0,.327-.33V1817.93a.327.327,0,0,0-.475-.294l-13.941,7.173A.327.327,0,0,1,159.331,1824.507Zm-19.34,10.9h-5a.329.329,0,0,1-.327-.33V1829.9a.329.329,0,0,1,.327-.33h5a.329.329,0,0,1,.327.33v5.181A.329.329,0,0,1,139.991,1835.407Zm14.127,0h-5a.329.329,0,0,1-.327-.33V1829.9a.329.329,0,0,1,.327-.33h5a.329.329,0,0,1,.327.33v5.181A.329.329,0,0,1,154.118,1835.407Zm14.127,0h-5a.329.329,0,0,1-.327-.33V1829.9a.329.329,0,0,1,.327-.33h5a.329.329,0,0,1,.327.33v5.181A.329.329,0,0,1,168.245,1835.407Z" transform="translate(-0.334 -30.188)"/><g transform="translate(120.053 1778.975)"><g transform="translate(0 0)"><path class="b" d="M173.563,1841.634H120.543a.49.49,0,0,1-.353-.148.473.473,0,0,1-.137-.352l1.434-32.747a.485.485,0,0,1,.49-.464h4.045a.485.485,0,0,1,.49.465l3.412,15.356a.178.178,0,0,0,.084.159.16.16,0,0,0,.158,0l13.683-6.985a.492.492,0,0,1,.481.016.479.479,0,0,1,.235.413l-.017,6.615a.159.159,0,0,0,.079.138.164.164,0,0,0,.161,0l13.791-7.173a.494.494,0,0,1,.487.016.477.477,0,0,1,.233.421l-.138,6.38a.157.157,0,0,0,.076.14.166.166,0,0,0,.161.007l13.941-6.985a.493.493,0,0,1,.479.019.477.477,0,0,1,.234.411v23.809A.487.487,0,0,1,173.563,1841.634Zm-51.585-33.389a.162.162,0,0,0-.163.155l-1.434,32.747a.157.157,0,0,0,.045.116.165.165,0,0,0,.118.05h53.019a.162.162,0,0,0,.163-.161v-23.809a.159.159,0,0,0-.078-.137.161.161,0,0,0-.16-.006l-13.941,6.985a.5.5,0,0,1-.483-.021.475.475,0,0,1-.23-.419l.138-6.38a.157.157,0,0,0-.077-.14.162.162,0,0,0-.162-.005l-13.791,7.173a.491.491,0,0,1-.483-.013.477.477,0,0,1-.237-.414l.017-6.615a.158.158,0,0,0-.078-.138.162.162,0,0,0-.16-.005l-13.683,6.985a.5.5,0,0,1-.473-.011.48.48,0,0,1-.243-.4l-3.412-15.356a.172.172,0,0,0-.166-.18Zm45.934,26.278h-5a.487.487,0,0,1-.49-.483v-5.046a.487.487,0,0,1,.49-.482h5a.487.487,0,0,1,.49.482v5.046A.487.487,0,0,1,167.911,1834.523Zm-5-5.689a.162.162,0,0,0-.163.161v5.046a.162.162,0,0,0,.163.161h5a.162.162,0,0,0,.163-.161v-5.046a.162.162,0,0,0-.163-.161Zm-9.13,5.689h-5a.487.487,0,0,1-.49-.483v-5.046a.487.487,0,0,1,.49-.482h5a.487.487,0,0,1,.49.482v5.046A.487.487,0,0,1,153.784,1834.523Zm-5-5.689a.162.162,0,0,0-.163.161v5.046a.162.162,0,0,0,.163.161h5a.162.162,0,0,0,.163-.161v-5.046a.162.162,0,0,0-.163-.161Z" transform="translate(-120.053 -1807.923)"/></g></g><path class="a" d="M181.351,1765.2c2.255,0,4.083,1.247,4.083,2.785s-1.828,2.786-4.083,2.786a5.77,5.77,0,0,1-1.553-.208,3.493,3.493,0,0,1-2.258.765,3.682,3.682,0,0,1-1.84-.47,2.254,2.254,0,0,1-1.427.47c-1.052,0-1.906-.624-1.906-1.393s.853-1.393,1.906-1.393a2.6,2.6,0,0,1,.359.024,2.956,2.956,0,0,1,2.907-1.7h.067a4.442,4.442,0,0,1,3.744-1.671Z" transform="translate(-35.266 -0.335)"/><g transform="translate(136.937 1764.697)"><path class="b" d="M177.205,1771.156a3.865,3.865,0,0,1-1.825-.437,2.478,2.478,0,0,1-1.442.437c-1.142,0-2.071-.7-2.071-1.558s.929-1.558,2.071-1.558c.084,0,.167,0,.249.011a3.17,3.17,0,0,1,3-1.683,4.675,4.675,0,0,1,3.832-1.671c2.343,0,4.248,1.324,4.248,2.95s-1.909,2.968-4.263,2.951a5.916,5.916,0,0,1-1.5-.192A3.7,3.7,0,0,1,177.205,1771.156Zm-1.856-.835.1.058a3.5,3.5,0,0,0,1.757.447,3.342,3.342,0,0,0,2.151-.726l.066-.057.085.023a5.022,5.022,0,0,0,1.508.2c2.161,0,3.918-1.176,3.918-2.621s-1.757-2.62-3.918-2.62a4.286,4.286,0,0,0-3.6,1.6l-.049.076h-.158a2.787,2.787,0,0,0-2.75,1.583l-.043.131-.137-.019a2.427,2.427,0,0,0-.336-.023c-.96,0-1.74.551-1.74,1.227s.781,1.228,1.74,1.228a2.1,2.1,0,0,0,1.322-.432Z" transform="translate(-171.868 -1764.697)"/></g><path class="b" d="M164.828,1826.805H153.44a.326.326,0,0,1-.33-.344l2.6-40.4a.327.327,0,0,1,.33-.3h6.188a.327.327,0,0,1,.33.3l2.6,40.4A.326.326,0,0,1,164.828,1826.805Z" transform="translate(-22.28 -14.108)"/></g></svg>