<svg xmlns="http://www.w3.org/2000/svg" width="89" height="57" viewBox="0 0 89 57"><defs><style>.a{fill:#fff;stroke:#181c4d;}.a,.b,.c{stroke-miterlimit:10;}.b{fill:#ff4749;}.b,.c{stroke:rgba(0,0,0,0);}.c{fill:#181c4d;}</style></defs><g transform="translate(0.5 0.5)"><path class="a" d="M1483.555,1132.7v-49.246c0-1.816-1.784-3.29-3.99-3.3l-80-.163c-2.213-.005-4.01,1.471-4.01,3.294V1132.7c0,1.819,1.791,3.3,4,3.3h80C1481.766,1135.991,1483.555,1134.515,1483.555,1132.7Z" transform="translate(-1395.556 -1079.991)"/><path class="b" d="M1449.438,1114.991h-25.763a1,1,0,0,1-.9-1.448l6-12a1,1,0,0,1,.895-.552h25.763a1,1,0,0,1,.9,1.447l-6,12A1,1,0,0,1,1449.438,1114.991Z" transform="translate(-1395.556 -1079.991)"/><circle class="c" cx="1" cy="1" r="1" transform="translate(3.854 3.713)"/><circle class="c" cx="1" cy="1" r="1" transform="translate(82.585 3.713)"/><circle class="c" cx="1" cy="1" r="1" transform="translate(3.854 51.151)"/><circle class="c" cx="1" cy="1" r="1" transform="translate(82.585 51.151)"/></g></svg>