<svg xmlns="http://www.w3.org/2000/svg" width="56" height="56" viewBox="0 0 56 56"><defs><style>.a{fill:#fff;opacity:0;}.b{fill:#f2f2f2;}.c{fill:#e2e2e2;}</style></defs><g transform="translate(-271 -104)"><rect class="a" width="56" height="56" transform="translate(271 104)"/><g transform="translate(271 116.25)"><path class="b" d="M1122.332-1813.779a15.6,15.6,0,0,0-11.424,4.957,8.346,8.346,0,0,0-9.2-2.322,8.346,8.346,0,0,0-5.429,7.777v.21a10.427,10.427,0,0,0-8.294,11.266,10.427,10.427,0,0,0,10.382,9.377h23.96a15.643,15.643,0,0,0,13.828-7.721,15.644,15.644,0,0,0,0-15.837,15.644,15.644,0,0,0-13.828-7.721Zm0,0" transform="translate(-1082.552 1813.797)"/><path class="c" d="M1094.664-1781.452a9.3,9.3,0,0,0-6.807,2.953,4.973,4.973,0,0,0-5.479-1.384,4.972,4.972,0,0,0-3.234,4.634v.125a6.212,6.212,0,0,0-4.942,6.713,6.212,6.212,0,0,0,6.186,5.587h14.276a9.321,9.321,0,0,0,8.239-4.6,9.321,9.321,0,0,0,0-9.436,9.321,9.321,0,0,0-8.239-4.6Zm0,0" transform="translate(-1074.171 1794.109)"/></g></g></svg>