<svg xmlns="http://www.w3.org/2000/svg" xmlns:xlink="http://www.w3.org/1999/xlink" width="32" height="32" viewBox="0 0 32 32"><defs><style>.a{fill:url(#a);}.b{fill:none;}</style><linearGradient id="a" x1="0.5" x2="0.5" y2="1" gradientUnits="objectBoundingBox"><stop offset="0" stop-color="#3EBCD4"/><stop offset="1" stop-color="#3EBCD4"/></linearGradient></defs><g transform="translate(-106 -938)"><g transform="translate(107 938)"><path class="a" d="M470.991-1807.572h-6.428v-7.066h-8.572v7.066h-6.428v-14.135h-1.429v14.135a1.627,1.627,0,0,0,1.429,1.77h7.857v-7.067h5.714v7.068H471a1.62,1.62,0,0,0,1.422-1.762v-14.144h-1.429Z" transform="translate(-445.278 1837.801)"/><path class="a" d="M467.9-1834.867h4.285v5.308a.813.813,0,0,0,.714.885.814.814,0,0,0,.714-.885v-6.192a1,1,0,0,0-.209-.625.652.652,0,0,0-.505-.26h-5a.814.814,0,0,0-.714.885A.813.813,0,0,0,467.9-1834.867Z" transform="translate(-446.469 1839.46)"/><path class="a" d="M474.865-1823.476l-13.247-15.585a1.934,1.934,0,0,0-3.062,0l-13.246,15.585a1.022,1.022,0,0,0-.2.848.83.83,0,0,0,.492.642.62.62,0,0,0,.694-.207h0l13.246-15.585a.7.7,0,0,1,1.094,0l13.247,15.585a.623.623,0,0,0,1.01-.032A1.038,1.038,0,0,0,474.865-1823.476Z" transform="translate(-445.088 1839.813)"/></g><rect class="b" width="32" height="32" transform="translate(106 938)"/></g></svg>
