<svg xmlns="http://www.w3.org/2000/svg" width="48" height="48" viewBox="0 0 48 48"><defs><style>.a{fill:#fff;opacity:0;}.b{fill:#f2f2f2;}.c{fill:#e2e2e2;}.d{fill:#aab2bc;}</style></defs><g transform="translate(-271 -104)"><rect class="a" width="48" height="48" transform="translate(271 104)"/><g transform="translate(271 109.817)"><path class="b" d="M1334.654-1610.536a10.127,10.127,0,0,0-8.429,4.609l-.43.651-.722-.287a8.071,8.071,0,0,0-3.007-.578,8.237,8.237,0,0,0-7.659,5.273l-.268.674-.722-.072q-.287-.029-.574-.029a5.541,5.541,0,0,0-5.531,5.532,5.542,5.542,0,0,0,5.536,5.531h21.805a10.462,10.462,0,0,0,10.236-10.651A10.459,10.459,0,0,0,1334.654-1610.536Z" transform="translate(-1296.89 1616.34)"/><path class="c" d="M1292.895-1601.727a7.452,7.452,0,0,1,7.444-7.443h.062a10.307,10.307,0,0,1,3.4-4.026,9.991,9.991,0,0,1,5.761-1.822,9.944,9.944,0,0,1,3,.459,12.371,12.371,0,0,1,1.791-1.914,9.079,9.079,0,0,0-6.184-2.437,9.044,9.044,0,0,0-3.361.646,11.094,11.094,0,0,0-9.232-5.039,11.405,11.405,0,0,0-11.192,11.607,11.529,11.529,0,0,0,8.631,11.3A7.461,7.461,0,0,1,1292.895-1601.727Z" transform="translate(-1284.385 1623.303)"/><path class="d" d="M1322.522-1559.08a.766.766,0,0,1-.224-.545.765.765,0,0,1,.224-.544.765.765,0,0,1,.544-.224h13.843a.771.771,0,0,1,.545.224.765.765,0,0,1,.225.544.766.766,0,0,1-.225.545.766.766,0,0,1-.545.225h-13.843a.771.771,0,0,1-.544-.225Zm5.029,1.8a.771.771,0,0,0-.545.225.765.765,0,0,0-.225.545.771.771,0,0,0,.225.544.765.765,0,0,0,.545.225h13.843a.771.771,0,0,0,.544-.225.765.765,0,0,0,.224-.544.771.771,0,0,0-.224-.545.765.765,0,0,0-.544-.225Zm-5.029,4.429a.766.766,0,0,1-.224-.545.77.77,0,0,1,.224-.544.765.765,0,0,1,.544-.225h13.843a.771.771,0,0,1,.545.225.765.765,0,0,1,.225.544.772.772,0,0,1-.225.545.765.765,0,0,1-.545.224h-13.843a.77.77,0,0,1-.544-.224Zm0,0" transform="translate(-1305.063 1588.991)"/></g></g></svg>