<svg xmlns="http://www.w3.org/2000/svg" xmlns:xlink="http://www.w3.org/1999/xlink" width="32" height="32" viewBox="0 0 32 32"><defs><style>.a{fill:url(#a);}.b{fill:none;}</style><linearGradient id="a" x1="0.5" x2="0.5" y2="1" gradientUnits="objectBoundingBox"><stop offset="0" stop-color="#3EBCD4"/><stop offset="1" stop-color="#3EBCD4"/></linearGradient></defs><g transform="translate(-497 -693)"><g transform="translate(584.56 -481)"><path class="a" d="M1665.134,664.663a.524.524,0,0,0,.524.524h.524a1.048,1.048,0,0,0,1.048,1.048h2.1a1.048,1.048,0,0,0,1.048-1.048V663.62a1.1,1.1,0,0,1,.64.264c.634.589.6,2.125.573,3.481-.037,1.744-.072,3.392,1.225,3.716a1.65,1.65,0,0,0,.4.051c1.115,0,1.819-1.244,2.4-2.263.4-.7.371-1.567.772-1.591l-.063-1.046c-.969.059-1.047,1.107-1.621,2.12-.616,1.087-1.091,1.847-1.629,1.713-.486-.122-.456-1.539-.432-2.678.035-1.653.071-3.361-.907-4.271a2.16,2.16,0,0,0-1.353-.555V661a1.048,1.048,0,0,0-1.048-1.048h-2.1a1.048,1.048,0,0,0-1.048,1.048h-.524a.524.524,0,0,0,0,1.048h.524v2.1h-.524A.524.524,0,0,0,1665.134,664.663Zm2.1-2.62a1.048,1.048,0,0,1,2.1,0v2.1a1.048,1.048,0,1,1-2.1,0Z" transform="translate(-1752.694 527.367)"/><path class="a" d="M23.565,28.9H.714a.723.723,0,0,1,0-1.445H2.856V1.445A1.438,1.438,0,0,1,4.285,0h15.71A1.41,1.41,0,0,1,21,.423a1.445,1.445,0,0,1,.419,1.022V27.458h2.142a.716.716,0,0,1,.619.361.733.733,0,0,1,0,.722A.715.715,0,0,1,23.565,28.9ZM4.335.867a.723.723,0,0,0-.722.722V26.736a.718.718,0,0,0,.211.511.729.729,0,0,0,.511.211H19.943a.719.719,0,0,0,.511-.211.728.728,0,0,0,.212-.511V1.59a.728.728,0,0,0-.212-.511.718.718,0,0,0-.511-.211Z" transform="translate(-79.839 1176)"/><path class="a" d="M8.375,8.375H1.2A1.2,1.2,0,0,1,0,7.179V1.2A1.2,1.2,0,0,1,1.2,0H8.375a1.2,1.2,0,0,1,.846.35,1.188,1.188,0,0,1,.35.846V7.179a1.19,1.19,0,0,1-.35.846A1.2,1.2,0,0,1,8.375,8.375Zm-7.2-7.8A.723.723,0,0,0,.452,1.3V7.078a.718.718,0,0,0,.211.511.729.729,0,0,0,.511.212H8.4a.722.722,0,0,0,.722-.723V1.3A.723.723,0,0,0,8.4.574Z" transform="translate(-72.534 1179.292)"/><path class="a" d="M1729.635,676.9,1725,681.68a.113.113,0,0,1-.183-.124l1.225-3.157a.115.115,0,0,0-.1-.158h-2.57a.116.116,0,0,1-.085-.19l4.031-4.846a.112.112,0,0,1,.195.1l-.634,3.266a.115.115,0,0,0,.11.138h2.572A.116.116,0,0,1,1729.635,676.9Z" transform="translate(-1794.204 517.971)"/></g><rect class="b" width="32" height="32" transform="translate(497 693)"/></g></svg>
