<svg xmlns="http://www.w3.org/2000/svg" xmlns:xlink="http://www.w3.org/1999/xlink" width="32" height="32" viewBox="0 0 32 32"><defs><style>.a{fill:url(#a);}.b{fill:none;}</style><linearGradient id="a" x1="0.5" x2="0.5" y2="1" gradientUnits="objectBoundingBox"><stop offset="0" stop-color="#3EBCD4"/><stop offset="1" stop-color="#3EBCD4"/></linearGradient></defs><g transform="translate(-431 -462)"><g transform="translate(179.21 196.679)"><g transform="translate(279.846 268.63)"><path class="a" d="M425.656,282.344a.594.594,0,0,1-.1-.009h0a.592.592,0,0,1-.307-1.008l.62-.6a.592.592,0,0,1,.827.845l-.626.6A.593.593,0,0,1,425.656,282.344Zm-.047-.328a.265.265,0,0,0,.232-.07l.619-.6a.269.269,0,0,0-.378-.379l-.613.59a.268.268,0,0,0,.139.456Z" transform="translate(-425.065 -280.581)"/></g><g transform="translate(281.763 273.033)"><path class="a" d="M437.5,309.071a.588.588,0,0,1-.1-.009h0a.592.592,0,0,1,.022-1.169l.851-.119a.592.592,0,0,1,.167,1.172l-.855.119A.581.581,0,0,1,437.5,309.071Zm-.047-.328a.28.28,0,0,0,.084,0l.851-.119a.268.268,0,0,0-.078-.531l-.848.119a.268.268,0,0,0-.009.53Z" transform="translate(-436.905 -307.77)"/></g><g transform="translate(280.998 277.467)"><path class="a" d="M433.525,336.743a.586.586,0,0,1-.274-.068l-.759-.4a.592.592,0,1,1,.557-1.044l.759.4a.59.59,0,0,1-.281,1.112Zm-.756-1.262a.268.268,0,0,0-.126.5l.758.4a.268.268,0,1,0,.252-.472l-.759-.4A.267.267,0,0,0,432.769,335.481Z" transform="translate(-432.178 -335.157)"/></g><g transform="translate(267.742 270.4)"><path class="a" d="M351.638,293.084a.589.589,0,0,1-.273-.067l-.76-.405a.592.592,0,0,1,.548-1.048l.853.454v.011a.59.59,0,0,1-.368,1.056Zm-.732-1.253a.272.272,0,0,0-.238.144.269.269,0,0,0,.1.356l.751.4a.273.273,0,0,0,.364-.112.27.27,0,0,0-.112-.361l-.759-.4A.247.247,0,0,0,350.906,291.83Z" transform="translate(-350.313 -291.508)"/></g><g transform="translate(277.848 280.685)"><path class="a" d="M413.689,356.988l-.05,0a.592.592,0,0,1-.493-.353l-.373-.768a.592.592,0,0,1,1.062-.523l0,.006.376.773a.592.592,0,0,1-.525.866Zm-.376-1.634a.269.269,0,0,0-.246.376l.373.767a.272.272,0,0,0,.226.166.269.269,0,0,0,.259-.394l-.377-.776A.268.268,0,0,0,413.313,355.353Z" transform="translate(-412.721 -355.029)"/></g><g transform="translate(271.266 266.989)"><path class="a" d="M373.04,272.406l-.048,0a.593.593,0,0,1-.491-.345l-.375-.771a.592.592,0,0,1,1.063-.522l.378.778a.592.592,0,0,1-.527.863Zm-.374-1.635a.269.269,0,0,0-.246.379l.376.773a.268.268,0,1,0,.483-.234l-.378-.778A.264.264,0,0,0,372.665,270.771Z" transform="translate(-372.072 -270.447)"/></g><g transform="translate(275.978 266.321)"><path class="a" d="M401.769,268.33a.59.59,0,0,1-.1-.009h0a.587.587,0,0,1-.381-.243.594.594,0,0,1-.1-.443l.151-.846a.591.591,0,0,1,1.165.2l-.151.854a.59.59,0,0,1-.583.489Zm-.046-.328a.267.267,0,0,0,.31-.217l.15-.847a.268.268,0,0,0-.528-.086l-.149.839a.269.269,0,0,0,.044.2.265.265,0,0,0,.173.11v0Z" transform="translate(-401.178 -266.321)"/></g><g transform="translate(251.79 273.852)"><path class="a" d="M275.6,332.11H254.14a2.242,2.242,0,0,1-1.8-.825,3.186,3.186,0,0,1-.434-2.738l3.164-13.665a2.7,2.7,0,0,1,2.533-2.049H272.14a2.7,2.7,0,0,1,2.533,2.051l3.163,13.663a3.187,3.187,0,0,1-.434,2.738A2.242,2.242,0,0,1,275.6,332.11Zm-18-18.3a1.746,1.746,0,0,0-1.586,1.3l-3.164,13.664a2.258,2.258,0,0,0,.247,1.914,1.274,1.274,0,0,0,1.04.46H275.6a1.275,1.275,0,0,0,1.04-.459,2.259,2.259,0,0,0,.246-1.915L273.726,315.1a1.747,1.747,0,0,0-1.586-1.3Z" transform="translate(-251.79 -312.833)"/></g><g transform="translate(275.993 291.046)"><path class="a" d="M401.267,419.016" transform="translate(-401.267 -419.016)"/></g><g transform="translate(256.36 275.912)"><path class="a" d="M286.684,331.578H281.3a1.256,1.256,0,0,1-1-.459,1.392,1.392,0,0,1-.258-1.17l.661-3.162a1.624,1.624,0,0,1,1.553-1.237h4.64a1.38,1.38,0,0,1,.977.4,1.259,1.259,0,0,1,.368.906l-.033,3.161A1.56,1.56,0,0,1,286.684,331.578Zm-4.42-5.381a.983.983,0,0,0-.92.723l-.661,3.161a.749.749,0,0,0,.126.63.612.612,0,0,0,.494.22h5.38a.922.922,0,0,0,.885-.919l.033-3.161a.616.616,0,0,0-.181-.443.718.718,0,0,0-.516-.209Z" transform="translate(-280.016 -325.55)"/></g><g transform="translate(265.215 275.912)"><path class="a" d="M341.6,331.578h-5.342a1.557,1.557,0,0,1-1.525-1.56l-.033-3.162a1.264,1.264,0,0,1,.369-.909,1.348,1.348,0,0,1,.967-.4h4.608a1.616,1.616,0,0,1,1.545,1.238l.657,3.161a1.4,1.4,0,0,1-.258,1.173A1.248,1.248,0,0,1,341.6,331.578Zm-5.563-5.381a.706.706,0,0,0-.507.206.621.621,0,0,0-.182.446l.033,3.162a.918.918,0,0,0,.877.919H341.6a.6.6,0,0,0,.487-.217.754.754,0,0,0,.126-.632l-.657-3.161a.975.975,0,0,0-.911-.722Z" transform="translate(-334.702 -325.55)"/></g><g transform="translate(254.734 282.745)"><path class="a" d="M277.93,376.062h-6.513a1.338,1.338,0,0,1-1.056-.505,2.007,2.007,0,0,1-.33-1.689l.941-4.495a2,2,0,0,1,1.816-1.619h5.457a1.451,1.451,0,0,1,1.035.44,1.752,1.752,0,0,1,.488,1.249l-.047,4.5A2,2,0,0,1,277.93,376.062Zm-5.142-7.66a1.368,1.368,0,0,0-1.182,1.1l-.941,4.5a1.39,1.39,0,0,0,.2,1.148.693.693,0,0,0,.554.265h6.513c.61,0,1.134-.679,1.143-1.483l.047-4.495a1.1,1.1,0,0,0-.3-.786.809.809,0,0,0-.575-.248Z" transform="translate(-269.976 -367.754)"/></g><g transform="translate(265.282 282.745)"><path class="a" d="M343.41,376.062h-6.467a2,2,0,0,1-1.78-2.123l-.047-4.495a1.756,1.756,0,0,1,.488-1.252,1.438,1.438,0,0,1,1.026-.437h5.418a1.988,1.988,0,0,1,1.806,1.619h0l.935,4.5a2.015,2.015,0,0,1-.331,1.692A1.329,1.329,0,0,1,343.41,376.062Zm-6.78-7.66a.8.8,0,0,0-.566.245,1.1,1.1,0,0,0-.3.789l.048,4.495c.009.8.527,1.483,1.132,1.483h6.467a.683.683,0,0,0,.546-.262,1.394,1.394,0,0,0,.2-1.151l-.935-4.5a1.362,1.362,0,0,0-1.172-1.1Z" transform="translate(-335.116 -367.754)"/></g><g transform="translate(260.248 292.158)"><path class="a" d="M312.144,430.638h-6.754a1.363,1.363,0,0,1-1.362-1.362v-.139a1.363,1.363,0,0,1,1.362-1.361h1.947v-.459a1.431,1.431,0,1,1,2.862,0v.459h1.946a1.363,1.363,0,0,1,1.362,1.361v.139A1.364,1.364,0,0,1,312.144,430.638Zm-6.754-1.891a.39.39,0,0,0-.39.39v.139a.391.391,0,0,0,.39.39h6.754a.391.391,0,0,0,.391-.39v-.139a.391.391,0,0,0-.391-.39h-2.917v-1.431a.459.459,0,1,0-.919,0v1.431Z" transform="translate(-304.029 -425.887)"/></g><g transform="translate(269.175 268.379)"><path class="a" d="M366.5,291.605l-1.481-6.392a1.892,1.892,0,0,0-1.744-1.422h-4.118l.142-.426a6.334,6.334,0,0,1,5.886-4.332l0,0h.124a6.339,6.339,0,0,1,1.505,12.5Zm-6.424-8.462h3.2a2.536,2.536,0,0,1,2.375,1.924l1.331,5.744a5.692,5.692,0,0,0-1.607-11.133h-.062A5.686,5.686,0,0,0,360.081,283.144Z" transform="translate(-359.163 -279.031)"/></g><g transform="translate(275.167 269.352)"><path class="a" d="M396.169,285.036" transform="translate(-396.169 -285.036)"/></g></g><rect class="b" width="32" height="32" transform="translate(431 462)"/></g></svg>
