<svg xmlns="http://www.w3.org/2000/svg" width="56" height="56" viewBox="0 0 56 56"><defs><style>.a{fill:#fff;opacity:0;}.b{fill:#f2f2f2;}.c{fill:#aab2bc;}</style></defs><g transform="translate(-271 -104)"><rect class="a" width="56" height="56" transform="translate(271 104)"/><g transform="translate(271 112.626)"><path class="b" d="M1315.964-1812.5a15.72,15.72,0,0,0-11.512,4.995,8.411,8.411,0,0,0-9.267-2.34,8.41,8.41,0,0,0-5.471,7.838v.211a10.508,10.508,0,0,0-8.358,11.354,10.508,10.508,0,0,0,10.462,9.45h24.146a15.765,15.765,0,0,0,13.935-7.781,15.765,15.765,0,0,0,0-15.96,15.765,15.765,0,0,0-13.935-7.781Zm0,0" transform="translate(-1276.068 1812.523)"/><path class="c" d="M1292.946-1789.453a10.179,10.179,0,0,0-7.455,3.235,5.448,5.448,0,0,0-6-1.516,5.448,5.448,0,0,0-3.543,5.076v.137a6.8,6.8,0,0,0-5.413,7.353,6.805,6.805,0,0,0,6.776,6.12h15.638a10.21,10.21,0,0,0,9.025-5.039,10.21,10.21,0,0,0,0-10.336,10.211,10.211,0,0,0-9.025-5.04Zm0,0" transform="translate(-1270.497 1800.633)"/><rect class="c" width="6.306" height="1.577" rx="0.788" transform="translate(14.773 33.691)"/><rect class="c" width="16.361" height="1.577" rx="0.788" transform="translate(24.117 33.691)"/><rect class="c" width="6.306" height="1.577" rx="0.788" transform="translate(3.587 37.171)"/><rect class="c" width="16.361" height="1.577" rx="0.788" transform="translate(12.93 37.171)"/></g></g></svg>