<svg xmlns="http://www.w3.org/2000/svg" width="64" height="64" viewBox="0 0 64 64"><defs><style>.a{fill:#fff;opacity:0;}.b{fill:#c5e7f9;}.c{fill:#9fdaff;}</style></defs><g transform="translate(-271 -104)"><rect class="a" width="64" height="64" transform="translate(271 104)"/><g transform="translate(-484.876 1735.992)"><path class="b" d="M805.842-1623.774a17.871,17.871,0,0,0-13.088,5.679,9.563,9.563,0,0,0-10.536-2.661,9.562,9.562,0,0,0-6.22,8.911v.24a11.946,11.946,0,0,0-9.5,12.908,11.946,11.946,0,0,0,11.895,10.744h27.452a17.923,17.923,0,0,0,15.843-8.846,17.923,17.923,0,0,0,0-18.145,17.924,17.924,0,0,0-15.843-8.847Zm0,0" transform="translate(-4.275)"/><path class="c" d="M781.211-1602.269a11.493,11.493,0,0,0-8.414,3.651,6.146,6.146,0,0,0-6.773-1.71,6.148,6.148,0,0,0-4,5.728v.155a7.68,7.68,0,0,0-6.109,8.3,7.68,7.68,0,0,0,7.647,6.907h17.648a11.524,11.524,0,0,0,10.185-5.687,11.522,11.522,0,0,0,0-11.665,11.522,11.522,0,0,0-10.185-5.687Zm0,0" transform="translate(0 -8.711)"/><path class="c" d="M803.992-1557.139l2.536-.362.321-1.447-1.414-.447-1.58,2.015.956-2.374-1.093-1-1.093,1,.956,2.381L802-1559.394l-1.414.447.321,1.447,2.543.362-2.543.362-.321,1.447,1.414.447,1.584-2.023-.956,2.381,1.093,1,1.093-1-.956-2.377,1.58,2.015,1.414-.443-.321-1.451Z" transform="translate(-18.104 -25.526)"/><path class="c" d="M820.163-1550.75l2.069-.3.261-1.178-1.152-.365-1.287,1.641.777-1.933-.886-.818-.891.818.777,1.939-1.287-1.647-1.152.365.261,1.178,2.069.3-2.069.292-.261,1.177,1.152.365,1.287-1.647-.777,1.939.891.818.886-.818-.777-1.934,1.287,1.642,1.152-.365-.261-1.177Z" transform="translate(-24.909 -28.383)"/></g></g></svg>