<svg xmlns="http://www.w3.org/2000/svg" width="80" height="80" viewBox="0 0 80 80"><defs><style>.a{fill:#ffd963;}</style></defs><g transform="translate(-303 -26)"><path class="a" d="M459.359,203.1A26.807,26.807,0,0,0,472.6,226.272a26.255,26.255,0,0,0,26.486,0A26.672,26.672,0,1,0,459.359,203.1Zm0,0" transform="translate(-142.305 -136.831)"/><path class="a" d="M343.718,36.811h-2.15a1.432,1.432,0,0,1-1.425-1.438V27.438A1.432,1.432,0,0,1,341.568,26h2.15a1.432,1.432,0,0,1,1.425,1.438v7.935a1.432,1.432,0,0,1-1.425,1.438ZM322.8,44.233l-1.52,1.534a1.415,1.415,0,0,1-2.015,0L313.7,40.156a1.447,1.447,0,0,1,0-2.034l1.52-1.534a1.416,1.416,0,0,1,2.016,0L322.8,42.2a1.447,1.447,0,0,1,0,2.034Zm-9.085,20.682v2.169a1.432,1.432,0,0,1-1.425,1.438h-7.864A1.432,1.432,0,0,1,303,67.084V64.915a1.432,1.432,0,0,1,1.425-1.438h7.864a1.432,1.432,0,0,1,1.425,1.438Zm8.07,21.107,1.52,1.534a1.447,1.447,0,0,1,0,2.034l-5.561,5.61a1.415,1.415,0,0,1-2.015,0l-1.521-1.534a1.447,1.447,0,0,1,0-2.034l5.561-5.611a1.416,1.416,0,0,1,2.015,0Zm20.5,9.167h2.149a1.432,1.432,0,0,1,1.425,1.438v7.935A1.432,1.432,0,0,1,344.431,106h-2.149a1.432,1.432,0,0,1-1.425-1.438V96.627a1.432,1.432,0,0,1,1.425-1.438ZM363.2,87.046l1.52-1.534a1.416,1.416,0,0,1,2.015,0l5.561,5.611a1.447,1.447,0,0,1,0,2.034l-1.52,1.534a1.416,1.416,0,0,1-2.016,0L363.2,89.08a1.447,1.447,0,0,1,0-2.034Zm9.085-20.682V64.2a1.432,1.432,0,0,1,1.425-1.438h7.864A1.432,1.432,0,0,1,383,64.2v2.169a1.432,1.432,0,0,1-1.425,1.438h-7.864a1.432,1.432,0,0,1-1.425-1.438Zm-8.07-21.107-1.52-1.534a1.446,1.446,0,0,1,0-2.034l5.56-5.61a1.415,1.415,0,0,1,2.015,0l1.52,1.534a1.447,1.447,0,0,1,0,2.034l-5.561,5.611a1.416,1.416,0,0,1-2.015,0Zm0,0"/></g></svg>