<svg xmlns="http://www.w3.org/2000/svg" width="64" height="64" viewBox="0 0 64 64"><defs><style>.a{fill:#fff;opacity:0;}.b{fill:#aab2bc;}.c{fill:#949da8;}.d{fill:#f6bb42;}</style></defs><g transform="translate(-271 -104)"><rect class="a" width="64" height="64" transform="translate(271 104)"/><g transform="translate(-1378.719 1913.95)"><path class="b" d="M1693.719-1805.347a19.942,19.942,0,0,0-14.609,6.344,10.64,10.64,0,0,0-8.056-3.677,10.665,10.665,0,0,0-10.666,10.666c0,.089,0,.178,0,.266a13.338,13.338,0,0,0-10.672,13.067,13.333,13.333,0,0,0,13.334,13.333h30.666a20,20,0,0,0,20-20,20,20,0,0,0-20-20Zm0,0" transform="translate(0 0)"/><path class="c" d="M1707.718-1798.6a19.922,19.922,0,0,1,4.588,12.746,20,20,0,0,1-20,20H1661.64a13.259,13.259,0,0,1-8-2.667,13.311,13.311,0,0,0,10.666,5.332h30.666a20,20,0,0,0,20-20,19.956,19.956,0,0,0-7.254-15.412Zm0,0" transform="translate(-1.254 -2.156)"/><path class="d" d="M1689.781-1758.01l11.477-11.157-24.648,9.087,5.577,5.735L1670.72-1743.2l24.638-9.078Zm0,0" transform="translate(-6.713 -11.565)"/><rect class="b" width="7.104" height="1.776" rx="0.888" transform="translate(1670.837 -1763.977) rotate(135)"/><rect class="b" width="12.975" height="1.776" rx="0.888" transform="translate(1665.244 -1762.056) rotate(135)"/><rect class="b" width="7.104" height="1.776" rx="0.888" transform="translate(1692.412 -1761.815) rotate(135)"/><rect class="b" width="12.975" height="1.776" rx="0.888" transform="translate(1685.913 -1759.728) rotate(135)"/></g></g></svg>