<?xml version="1.0" encoding="UTF-8"?>
<svg width="16px" height="16px" viewBox="0 0 16 16" version="1.1" xmlns="http://www.w3.org/2000/svg" xmlns:xlink="http://www.w3.org/1999/xlink">
    <title>Icon_Warning</title>
    <g id="家储V1.3" stroke="none" stroke-width="1" fill="none" fill-rule="evenodd">
        <g id="--Fault-Management-_Fault-List_Open" transform="translate(-1019.000000, -431.000000)">
            <g id="表单备份-2" transform="translate(224.000000, 408.000000)">
                <g id="标题栏" transform="translate(24.000000, 20.000000)">
                    <g id="告警状态" transform="translate(625.000000, 0.000000)">
                        <g id="告警状态2" transform="translate(122.000000, 0.000000)">
                            <g id="Icon_Warning" transform="translate(24.000000, 3.000000)">
                                <rect id="BG" x="0" y="0" width="16" height="16"></rect>
                                <g id="预警等级" transform="translate(2.000000, 2.000000)" fill="#F99600" fill-rule="nonzero">
                                    <path d="M7.34585156,7.39292437 L8.1646207,5.97507309 L8.1646207,5.97507311 C8.3150121,5.71405441 8.22533132,5.38054119 7.96431327,5.23014982 C7.70329452,5.07975844 7.36978124,5.16943921 7.21938984,5.4304572 L6.67477499,6.37476443 L5.72954413,5.82922626 L5.72954417,5.82922628 C5.46928362,5.67844584 5.13606917,5.76719578 4.9852887,6.02745593 C4.98506583,6.02784062 4.98484343,6.02822559 4.9846215,6.02861082 L4.16585236,7.44553632 L4.16585237,7.4455363 C4.01520549,7.706555 4.10468026,8.04027446 4.36569807,8.19092131 C4.62671682,8.34156815 4.96043635,8.2520934 5.11108323,7.99107564 L5.65569807,7.04676841 L6.60092893,7.59138315 L6.60092887,7.59138311 C6.86154215,7.74148855 7.19446364,7.65279263 7.34585231,7.39292143 L7.34585156,7.39292437 Z M6,2.72769094 L5.99999983,2.72769094 C8.1085428,2.72769094 9.8178514,4.43699919 9.8178514,6.54554173 C9.8178514,6.54554173 9.8178514,6.54554173 9.8178514,6.54554173 L9.8178514,10.3633925 L2.18215999,10.3633925 L2.18215999,6.54554173 L2.18215999,6.54554115 C2.18215999,4.43699861 3.89146858,2.72769094 6.00001155,2.72769094 L6,2.72769094 Z M1.25907422,10.9089237 L10.7409258,10.9089237 L10.7409258,10.9089237 C11.0422183,10.9089237 11.286464,11.1531693 11.286464,11.4544618 C11.286464,11.7557543 11.0422183,12 10.7409258,12 L1.25907419,12 L1.25907417,12 C0.957781593,12 0.71353589,11.7557543 0.71353589,11.4544618 C0.71353589,11.1531693 0.957781593,10.9089237 1.25907417,10.9089237 L1.25907422,10.9089237 Z M6,0 L5.99999998,0 C6.30078279,0 6.54461482,0.243832064 6.54461482,0.544614816 L6.54461482,1.09107642 L6.54461482,1.09107642 C6.54461482,1.39185918 6.30078279,1.63569116 5.99999998,1.63569116 C5.69921716,1.63569116 5.45538513,1.39185918 5.45538513,1.09107642 L5.45538513,0.544614816 L5.45538513,0.544614734 C5.45538513,0.243831982 5.69921834,0 6.00000115,0 C6.00000115,0 6.00000115,0 6.00000115,0 L6,0 Z M9,0.80399992 L9.00000002,0.803999932 C9.26062854,0.954142871 9.35019494,1.28713929 9.20005198,1.54776775 C9.19983005,1.54815299 9.19960765,1.54853795 9.19938478,1.54892265 L8.92707735,2.0215374 L8.92707735,2.0215374 C8.77643165,2.28255609 8.44271095,2.3720299 8.1816922,2.22138306 C7.92067345,2.07073739 7.83119962,1.73701675 7.9818465,1.47599805 L8.25507735,1.0033833 L8.25507739,1.00338324 C8.40522036,0.742754774 8.73821685,0.653188386 8.99884536,0.803331325 C8.9992306,0.803553254 8.99961557,0.803775656 9.00000027,0.803998528 L9,0.80399992 Z M11.196,2.99999948 L11.196,2.99999948 C11.3467805,3.26025997 11.2580305,3.59347436 10.9977703,3.7442548 C10.9973856,3.74447767 10.9970007,3.74470007 10.9966154,3.744922 L10.5240006,4.0181528 L10.5240006,4.01815279 C10.2602889,4.16386956 9.92838106,4.06821587 9.78266426,3.80450479 C9.64062364,3.54744703 9.7275777,3.22407639 9.97938457,3.07292212 L10.4501537,2.80061476 L10.4501537,2.80061477 C10.7101916,2.64945113 11.0435373,2.73771251 11.1946998,2.99775106 C11.1951349,2.9984995 11.1955682,2.99924898 11.1959997,2.99999948 L11.196,2.99999948 Z M12,5.99999887 L12,5.99999887 C12,6.30078162 11.756168,6.5446136 11.4553852,6.5446136 L10.9089234,6.5446136 L10.9089234,6.5446136 C10.6081406,6.5446136 10.3643086,6.30078045 10.3643086,5.99999887 C10.3643086,5.69921612 10.6081418,5.45538414 10.9089234,5.45538414 L11.4544617,5.45538414 C11.7553851,5.45538414 12,5.69907666 12,5.99999887 L12,5.99999887 Z M0,5.99999887 L0,5.99999879 C0,5.69921604 0.243833203,5.45538405 0.544616016,5.45538405 L1.09107773,5.45538405 L1.09107771,5.45538405 C1.39186052,5.45538405 1.63569255,5.69921604 1.63569255,5.99999879 C1.63569255,6.30078154 1.39186052,6.54461352 1.09107771,6.54461352 L0.544615992,6.54461352 L0.544615968,6.54461352 C0.243833156,6.54461352 0,6.30078037 0,5.99999879 C0,5.99999879 0,5.99999879 0,5.99999879 L0,5.99999887 Z M0.804,2.99999948 L0.804000033,2.99999942 C0.954143002,2.73937096 1.28713949,2.64980457 1.547768,2.79994751 C1.54815324,2.80016943 1.54853821,2.80039183 1.5489229,2.8006147 L2.02153774,3.07292207 L2.02153778,3.0729221 C2.28255653,3.22356894 2.37203036,3.5572884 2.22138349,3.8183071 C2.07073661,4.0793258 1.73701708,4.16879961 1.47599833,4.01815276 L1.00338349,3.74492196 L1.00338342,3.74492192 C0.742754909,3.59477898 0.653188502,3.26178257 0.803331471,3.0011541 C0.8035534,3.00076887 0.803775799,3.0003839 0.80399867,2.99999921 L0.804,2.99999948 Z M3,0.80399992 L2.99999993,0.803999963 C3.26026047,0.653219524 3.59347493,0.74196935 3.74425539,1.00222961 C3.74447827,1.0026143 3.74470066,1.00299927 3.74492259,1.00338451 L4.01815345,1.47599925 L4.01815344,1.47599924 C4.16854485,1.73701794 4.07886407,2.07053115 3.81784602,2.22092253 C3.55682727,2.3713139 3.22331399,2.28163314 3.07292258,2.02061515 L2.80061516,1.5498461 L2.80061517,1.54984611 C2.64906947,1.29002976 2.73684091,0.956556386 2.99665697,0.805010714 C2.99776897,0.804362106 2.99888327,0.803717444 2.99999984,0.803076734 L3,0.80399992 Z" id="形状"></path>
                                </g>
                            </g>
                        </g>
                    </g>
                </g>
            </g>
        </g>
    </g>
</svg>